<?xml version="1.0" encoding="UTF-8"?>
<!-- Generator: visioncortex VTracer -->
<svg id="svg" version="1.1" xmlns="http://www.w3.org/2000/svg" style="display: block;" viewBox="0 0 1024 1024"><path d="M0 0 C337.92 0 675.84 0 1024 0 C1024 337.92 1024 675.84 1024 1024 C686.08 1024 348.16 1024 0 1024 C0 686.08 0 348.16 0 0 Z " transform="translate(0,0)" style="fill: #000000;"/><path d="M0 0 C2.68669287 -0.10383354 5.08147852 -0.03719877 7.73828125 0.40625 C11.17139279 1.95462068 13.92489424 3.91439294 16.73828125 6.40625 C19.23828125 9.15625 19.23828125 9.15625 20.73828125 12.40625 C21.62149069 15.80544422 21.95489887 18.89810125 21.73828125 22.40625 C21.0903903 24.94952379 20.24408197 27.08452837 19.0546875 29.421875 C17.73118868 31.41694146 16.41194764 32.89546932 14.61328125 34.46875 C13.66453125 35.108125 12.71578125 35.7475 11.73828125 36.40625 C11.07828125 36.40625 10.41828125 36.40625 9.73828125 36.40625 C9.63702358 48.60295184 9.59008439 60.79856252 9.61131096 72.99570179 C9.61948743 78.66031591 9.60938846 84.32363669 9.55664062 89.98803711 C9.50636188 95.46106984 9.50524321 100.932162 9.53732681 106.40530968 C9.54106029 108.48678473 9.52747453 110.56836955 9.49578476 112.6496067 C9.28501679 122.10589513 9.28501679 122.10589513 10.73828125 131.40625 C12.08020651 134.06050973 13.48844782 135.67707493 15.53564453 137.9362793 C17.25264264 139.44607415 18.98644083 140.93702635 20.73828125 142.40625 C22.25690701 144.1645956 23.73610824 145.95769712 25.17578125 147.78125 C30.27222994 154.06454291 35.51239058 160.2301974 40.73828125 166.40625 C41.06828125 134.06625 41.39828125 101.72625 41.73828125 68.40625 C40.08828125 68.07625 38.43828125 67.74625 36.73828125 67.40625 C34.53515625 65.84765625 34.53515625 65.84765625 32.48828125 63.96875 C31.8025 63.35128906 31.11671875 62.73382813 30.41015625 62.09765625 C28.73828125 60.40625 28.73828125 60.40625 27.73828125 58.40625 C27.18507176 54.32004351 27.10598306 50.48559316 27.73828125 46.40625 C29.18858341 43.85626818 30.76168904 42.01074723 32.81640625 39.9296875 C34.74922696 38.39757352 36.45528623 37.33371673 38.73828125 36.40625 C41.68434672 36.11164345 43.86474456 35.98458972 46.73828125 36.40625 C49.66712312 37.3878365 52.19088788 38.6609184 54.73828125 40.40625 C57.17578125 42.90625 57.17578125 42.90625 58.73828125 45.40625 C59.7079047 47.83030864 59.81190772 50.04434607 60.11328125 52.65625 C59.73828125 56.40625 59.73828125 56.40625 58.76171875 58.56640625 C57.51698522 60.67023501 56.34753683 62.56407585 54.73828125 64.40625 C54.05758701 64.620697 53.37689278 64.835144 52.67557144 65.0560894 C52.03626568 65.5016424 51.39695992 65.9471954 50.73828125 66.40625 C50.33653596 68.97815622 50.21543903 71.13107275 50.25726318 73.70803833 C50.25213663 74.84991271 50.25213663 74.84991271 50.24690652 76.01485527 C50.24028952 78.5794533 50.26236551 81.14301708 50.28417969 83.70751953 C50.28530735 85.5403033 50.2846759 87.37308887 50.28240967 89.20587158 C50.2812584 94.19335444 50.30483431 99.18045527 50.3327055 104.16784906 C50.35765058 109.37554157 50.3600557 114.58324208 50.36480713 119.79098511 C50.37725723 129.65789179 50.4101063 139.52462194 50.45020509 149.39145076 C50.4948596 160.62221383 50.51689392 171.85298517 50.53698683 183.08381486 C50.5788372 206.19139456 50.65003105 229.29880497 50.73828125 252.40625 C58.32828125 252.40625 65.91828125 252.40625 73.73828125 252.40625 C73.70347656 250.20324219 73.66867187 248.00023437 73.6328125 245.73046875 C73.60941342 243.59579769 73.59119895 241.46114093 73.57348633 239.32641602 C73.55840357 237.84327801 73.53793436 236.36018456 73.51196289 234.87719727 C73.47555509 232.74484255 73.45855052 230.61307765 73.4453125 228.48046875 C73.42174683 226.55593872 73.42174683 226.55593872 73.39770508 224.5925293 C73.56629028 223.01532104 73.56629028 223.01532104 73.73828125 221.40625 C74.18518311 220.76018799 74.63208496 220.11412598 75.0925293 219.44848633 C75.63562744 219.10454834 76.17872559 218.76061035 76.73828125 218.40625 C79.36328125 218.65625 79.36328125 218.65625 81.73828125 219.40625 C82.06828125 219.73625 82.39828125 220.06625 82.73828125 220.40625 C82.83214506 222.2780594 82.85571929 224.1534306 82.85180664 226.02758789 C82.85168579 227.2456311 82.85156494 228.46367432 82.85144043 229.71862793 C82.84632446 231.00901978 82.8412085 232.29941162 82.8359375 233.62890625 C82.83493042 234.80739136 82.83392334 235.98587646 82.83288574 237.20007324 C82.82763441 241.62297532 82.8136733 246.04586359 82.80078125 250.46875 C82.78015625 260.348125 82.75953125 270.2275 82.73828125 280.40625 C102.53828125 280.40625 122.33828125 280.40625 142.73828125 280.40625 C143.06828125 279.08625 143.39828125 277.76625 143.73828125 276.40625 C145.97927527 274.39510152 148.04432856 272.75322635 150.73828125 271.40625 C154.14894208 270.91366827 157.33221812 270.86148355 160.73828125 271.40625 C162.92836095 272.63093938 164.55090307 273.97788039 166.36328125 275.703125 C167.86523607 277.56350085 168.87096285 279.17479975 169.73828125 281.40625 C169.73281714 282.86516822 169.68787274 284.32422964 169.61328125 285.78125 C169.74434051 288.53095182 169.74434051 288.53095182 170.73828125 291.40625 C173.62467829 295.90810703 177.46352141 299.74288894 181.10400391 303.63476562 C183.59571436 306.33566958 185.9457123 309.14890982 188.30078125 311.96875 C189.20510827 313.0408886 190.11005653 314.11250351 191.015625 315.18359375 C191.46276855 315.7132373 191.90991211 316.24288086 192.37060547 316.78857422 C193.76287542 318.43533979 195.15833598 320.07935067 196.5546875 321.72265625 C200.80568184 326.72859652 205.03392417 331.7466538 209.17578125 336.84375 C212.64900637 341.11370059 216.20629616 345.30120673 219.80078125 349.46875 C223.18606936 353.3944177 226.52464165 357.33742149 229.73828125 361.40625 C230.67027344 362.56640625 230.67027344 362.56640625 231.62109375 363.75 C232.7856989 365.21112823 233.94522133 366.67655137 235.08105469 368.16015625 C239.99914726 374.6571115 239.99914726 374.6571115 245.73828125 380.40625 C248.48772055 381.5531369 250.59284196 381.93277108 253.54296875 382.13671875 C254.26742188 382.22566406 254.991875 382.31460937 255.73828125 382.40625 C258.26582957 383.81685269 259.70244979 385.26862697 261.73828125 387.40625 C262.19203125 388.025 262.64578125 388.64375 263.11328125 389.28125 C263.73828125 391.40625 263.73828125 391.40625 264.05078125 394.78125 C263.73828125 398.40625 263.73828125 398.40625 262.55078125 401.59375 C260.73828125 404.40625 260.73828125 404.40625 258.17578125 406.71875 C255.73828125 408.40625 255.73828125 408.40625 253.73828125 409.40625 C250.32766942 409.89882465 247.14371077 409.95600544 243.73828125 409.40625 C241.54704803 408.14499372 239.92008662 406.77074802 238.11328125 405.01171875 C236.73828125 403.40625 236.73828125 403.40625 234.73828125 400.40625 C234.47265625 398.28515625 234.47265625 398.28515625 234.48828125 395.96875 C234.483125 395.20691406 234.47796875 394.44507813 234.47265625 393.66015625 C234.60414063 392.54447266 234.60414063 392.54447266 234.73828125 391.40625 C235.0940625 390.73464844 235.44984375 390.06304688 235.81640625 389.37109375 C236.120625 388.72269531 236.42484375 388.07429688 236.73828125 387.40625 C236.68324585 385.35642878 236.68324585 385.35642878 235.73828125 383.40625 C234.19900176 381.35853486 234.19900176 381.35853486 232.23828125 379.34375 C229.20933521 376.04628037 226.30301707 372.70121513 223.48828125 369.21875 C219.97337349 364.88571716 216.38102584 360.63144351 212.73828125 356.40625 C209.18365242 352.28165483 205.67035651 348.1341688 202.23828125 343.90625 C198.90806508 339.80476294 195.50196343 335.78055119 192.05078125 331.78125 C186.84445861 325.74666791 181.76027887 319.61826714 176.72192383 313.44287109 C175.62598743 312.10298122 174.52394889 310.76805663 173.41552734 309.43847656 C172.2335496 308.00633933 171.07716707 306.55288676 169.93994141 305.08496094 C169.34358887 304.3427832 168.74723633 303.60060547 168.1328125 302.8359375 C167.33580933 301.8147583 167.33580933 301.8147583 166.52270508 300.77294922 C165.93384521 300.32193848 165.34498535 299.87092773 164.73828125 299.40625 C162.15723426 299.5941208 162.15723426 299.5941208 159.73828125 300.40625 C156.66167486 300.78674902 153.81015366 300.86913488 150.73828125 300.40625 C148.69061711 299.49267677 147.04509873 298.41563683 145.24609375 297.0859375 C144.74851562 296.53164063 144.2509375 295.97734375 143.73828125 295.40625 C143.3441655 294.39754852 142.95004974 293.38884705 142.54399109 292.34957886 C141.94810684 291.37828033 141.3522226 290.40698181 140.73828125 289.40625 C137.79695194 288.4978335 137.79695194 288.4978335 134.33911133 288.63330078 C133.69493759 288.62267105 133.05076385 288.61204132 132.3870697 288.60108948 C130.25985908 288.57300451 128.13512414 288.58710222 126.0078125 288.6015625 C124.53234181 288.59031413 123.05688903 288.57643425 121.58146667 288.56002808 C117.69982358 288.52394064 113.81896726 288.52362243 109.93719482 288.53070068 C105.97556418 288.53161259 102.01423003 288.49876957 98.05273438 288.46875 C90.2810755 288.41484127 82.51016593 288.40183075 74.73828125 288.40625 C74.73828125 279.49625 74.73828125 270.58625 74.73828125 261.40625 C66.81828125 261.40625 58.89828125 261.40625 50.73828125 261.40625 C50.73828125 312.55625 50.73828125 363.70625 50.73828125 416.40625 C53.37828125 416.40625 56.01828125 416.40625 58.73828125 416.40625 C61.78936514 417.57782633 64.21085721 419.34396165 66.73828125 421.40625 C68.81539314 423.69639901 70.36404582 425.65777914 71.73828125 428.40625 C72.17211764 432.78179989 72.18903938 437.03184725 71.73828125 441.40625 C70.82409796 443.8887305 69.80525846 445.65524378 68.203125 447.75 C67.47802734 448.56984375 67.47802734 448.56984375 66.73828125 449.40625 C65.89265625 450.39625 65.04703125 451.38625 64.17578125 452.40625 C63.04140625 453.06625 61.90703125 453.72625 60.73828125 454.40625 C57.64815796 454.93797784 54.84770678 455.03057369 51.71484375 454.89453125 C48.73828125 454.40625 48.73828125 454.40625 46.32421875 453.44921875 C43.16060855 451.58304419 40.86288391 449.54068971 38.36328125 446.84375 C36.92896567 444.69227662 35.74805045 442.77942064 34.73828125 440.40625 C34.18837128 436.67843927 34.21991486 433.13746151 34.73828125 429.40625 C35.76537725 426.96641973 36.95582098 424.94849466 38.44921875 422.76953125 C38.87460937 422.31964844 39.3 421.86976563 39.73828125 421.40625 C40.39828125 421.40625 41.05828125 421.40625 41.73828125 421.40625 C41.88470414 391.0699568 41.96943995 360.73404816 41.96888293 330.39741974 C41.96887113 326.81035653 41.96938152 323.22329358 41.97021484 319.63623047 C41.97037195 318.92215527 41.97052906 318.20808007 41.97069094 317.47236623 C41.97447327 305.93236757 42.0204918 294.39290829 42.0823094 282.85309123 C42.14486293 270.99905266 42.16158712 259.1455779 42.13637614 247.29139817 C42.12352534 240.6383154 42.13286096 233.98644072 42.19223785 227.33349228 C42.24752694 221.06354683 42.24598877 214.79611408 42.20197487 208.52610397 C42.19568753 206.23243923 42.2096768 203.93860931 42.24612236 201.64522552 C42.46446981 191.42577564 42.46446981 191.42577564 40.73828125 181.40625 C38.79618924 177.65181511 36.29095498 174.64524615 33.32302499 171.65726745 C32.29230804 170.68508773 31.25080539 169.72418417 30.19757795 168.776438 C27.98771648 166.7015168 26.16338563 164.35342671 24.30078125 161.96875 C19.14377039 155.62022761 13.75883765 149.47531784 8.38916016 143.30712891 C-1.44456762 131.98423561 -11.23927617 120.60652109 -20.69921875 108.96875 C-24.72248466 104.02484487 -28.85182232 99.17916068 -33.01342773 94.35180664 C-33.49239502 93.79614014 -33.9713623 93.24047363 -34.46484375 92.66796875 C-34.93768799 92.12962402 -35.41053223 91.5912793 -35.89770508 91.03662109 C-37.26171875 89.40625 -37.26171875 89.40625 -38.4753418 87.65478516 C-39.77657647 85.73183375 -39.77657647 85.73183375 -42.26171875 83.40625 C-45.80481906 82.90573226 -45.80481906 82.90573226 -49.57421875 83.40625 C-52.18596758 83.55941594 -54.63240298 83.52614457 -57.26171875 83.40625 C-59.9140625 82.26953125 -59.9140625 82.26953125 -62.01171875 80.71875 C-63.80859375 79.03125 -63.80859375 79.03125 -65.26171875 77.40625 C-65.92171875 76.684375 -66.58171875 75.9625 -67.26171875 75.21875 C-68.2856205 72.33902634 -68.56092674 70.1361743 -68.69921875 67.09375 C-68.60200801 64.31202732 -68.36814442 61.82060062 -67.67578125 59.125 C-66.74954846 56.91563739 -65.77404035 55.26725701 -64.26171875 53.40625 C-61.48011291 50.85416763 -58.70114748 48.96652065 -55.26171875 47.40625 C-53.21484375 46.8984375 -53.21484375 46.8984375 -51.26171875 46.78125 C-48.22753201 47.05928305 -45.48956707 47.84716584 -42.63671875 48.90625 C-40.28976532 50.08176047 -38.37363756 51.31271621 -36.359375 52.99609375 C-34.69921875 54.84375 -34.69921875 54.84375 -33.2890625 56.9140625 C-32.26171875 59.40625 -32.26171875 59.40625 -31.828125 62.7109375 C-31.7655047 66.01876272 -31.7956665 69.13044046 -32.26171875 72.40625 C-32.92171875 73.39625 -33.58171875 74.38625 -34.26171875 75.40625 C-34.23420596 77.39333383 -34.23420596 77.39333383 -33.26171875 79.40625 C-31.49349533 81.68431206 -31.49349533 81.68431206 -29.26171875 83.96875 C-26.05520748 87.42734549 -22.97140385 90.92154811 -20.01171875 94.59375 C-16.20390688 99.29791404 -12.28908921 103.89713421 -8.32421875 108.46875 C-7.75606445 109.12447998 -7.18791016 109.78020996 -6.60253906 110.45581055 C-4.53507122 112.83302425 -2.49023282 115.17773593 -0.26171875 117.40625 C0.06828125 91.00625 0.39828125 64.60625 0.73828125 37.40625 C-1.24171875 37.40625 -3.22171875 37.40625 -5.26171875 37.40625 C-7.4921875 36.05078125 -7.4921875 36.05078125 -9.44921875 34.21875 C-10.10277344 33.62707031 -10.75632812 33.03539062 -11.4296875 32.42578125 C-13.47278908 30.17357759 -14.92231703 28.14187654 -16.26171875 25.40625 C-16.86635804 21.35897979 -16.75253791 17.46515897 -16.26171875 13.40625 C-14.63671875 9.96875 -14.63671875 9.96875 -12.26171875 7.40625 C-9.81687235 5.07253298 -7.29591641 3.01184203 -4.3671875 1.296875 C-2.26171875 0.40625 -2.26171875 0.40625 0 0 Z " transform="translate(402.26171875,304.59375)" style="fill: #F4F4F4;"/><path d="M0 0 C4.06611822 -0.50112845 7.93581477 -0.52794563 12 0 C14.73728358 1.18562574 16.86182313 2.53327275 19.22265625 4.34765625 C21 6 21 6 23 8.625 C24.17393313 11.41309117 24.8571041 14.05399294 25.30859375 17.04296875 C25.45511155 19.48049211 25.411826 21.58677663 25 24 C23.38782555 27.33462794 21.43832711 30.2149383 19 33 C17.296875 34.6953125 17.296875 34.6953125 15 36 C12.36 36.33 9.72 36.66 7 37 C7 98.05 7 159.1 7 222 C-3.23 222 -13.46 222 -24 222 C-24 229.59 -24 237.18 -24 245 C-22.29070313 244.97679687 -20.58140625 244.95359375 -18.8203125 244.9296875 C-16.58854602 244.91093316 -14.35677483 244.8927326 -12.125 244.875 C-10.99707031 244.85824219 -9.86914062 244.84148437 -8.70703125 244.82421875 C-7.63066406 244.81777344 -6.55429687 244.81132812 -5.4453125 244.8046875 C-4.45031738 244.79421387 -3.45532227 244.78374023 -2.43017578 244.77294922 C-1.22723877 244.88533936 -1.22723877 244.88533936 0 245 C0.66 245.66 1.32 246.32 2 247 C2.25 249.5 2.25 249.5 2 252 C1.34 252.66 0.68 253.32 0 254 C-2.43017578 254.22705078 -2.43017578 254.22705078 -5.4453125 254.1953125 C-6.52167969 254.18886719 -7.59804688 254.18242187 -8.70703125 254.17578125 C-9.83496094 254.15902344 -10.96289062 254.14226562 -12.125 254.125 C-13.26066406 254.11597656 -14.39632812 254.10695313 -15.56640625 254.09765625 C-18.37781299 254.07403098 -21.18880298 254.04109013 -24 254 C-23.95560785 258.98110533 -23.88552788 263.96097175 -23.79248047 268.94140625 C-23.76439963 270.63271174 -23.74312146 272.32414532 -23.72900391 274.015625 C-23.70739392 276.45899425 -23.66065666 278.90084425 -23.609375 281.34375 C-23.60814636 282.08991577 -23.60691772 282.83608154 -23.60565186 283.6048584 C-23.54554873 285.79988088 -23.39814685 287.83949184 -23 290 C-21.91740197 292.8312187 -20.61465062 295.43573213 -19 298 C-16.49477312 300.97918873 -14.08869035 302.94061603 -10.85546875 305.10546875 C-8.86712479 306.21561664 -7.22110233 306.95592413 -4.98413086 307.40185547 C-2.84833413 307.57163103 -0.76696829 307.60634146 1.375 307.5625 C2.49600098 307.54823975 2.49600098 307.54823975 3.63964844 307.53369141 C6.9559215 307.40880781 9.74996227 307.07834515 12.9296875 306.08203125 C15.84364836 304.56618292 18.13546368 302.79870869 20.5390625 300.578125 C22.69202431 298.23630689 24.20098792 295.641093 25.75 292.875 C27.09701806 289.52626795 27.30982582 286.2720472 27.5625 282.6875 C27.62630859 281.14642578 27.62630859 281.14642578 27.69140625 279.57421875 C27.79324219 278.72472656 27.89507813 277.87523437 28 277 C28.66 276.34 29.32 275.68 30 275 C32.5 274.75 32.5 274.75 35 275 C35.66 275.66 36.32 276.32 37 277 C37.54465968 281.35727741 37.38088669 285.63216951 37 290 C36.206245 293.72372313 34.95688669 296.73675922 33 300 C30.31999943 303.7419925 27.45112892 306.95272659 24 310 C20.48384386 312.40092102 16.96147091 314.43276114 13 316 C6.08291295 317.51105972 -0.96553961 317.62886028 -8 317 C-10.88597043 316.16314678 -13.14429544 315.13704081 -15.72265625 313.60546875 C-19.85113671 310.69499625 -23.65290487 307.80921872 -27 304 C-29.37401243 300.23217597 -31.31347977 296.38567071 -32.54759216 292.09710693 C-33.30029277 288.60801249 -33.1209075 285.06859793 -33.09765625 281.515625 C-33.0962413 280.70003113 -33.09482635 279.88443726 -33.09336853 279.04412842 C-33.08778303 276.44604788 -33.07523321 273.84805437 -33.0625 271.25 C-33.05748312 269.48567833 -33.05292054 267.72135531 -33.04882812 265.95703125 C-33.03867039 261.63796055 -33.01909219 257.31907738 -33 253 C-42.9 253 -52.8 253 -63 253 C-63 183.37 -63 113.74 -63 42 C-65.64 42 -68.28 42 -71 42 C-73.44495167 41.21794475 -75.00925245 40.20643504 -77.1015625 38.734375 C-79.25635838 36.76579605 -80.86073075 34.79157532 -82.5 32.375 C-84.00618589 29.60196734 -84.94441629 27.28791561 -85.54296875 24.1875 C-85.69139331 21.29923824 -85.56470103 18.83624277 -85 16 C-83.75522032 12.91168586 -82.17194808 10.51398715 -80 8 C-78.06454983 5.91926134 -76.40916452 4.62249856 -74 3 C-71.25 2.1875 -71.25 2.1875 -68 2 C-66.86884766 1.87238281 -66.86884766 1.87238281 -65.71484375 1.7421875 C-63.01843445 1.55047988 -60.67336973 1.57788899 -58 2 C-54.57093427 3.54602183 -51.79169463 5.48747483 -49 8 C-47.29684324 9.96192367 -46.23793579 11.6788704 -45 14 C-43.81926728 17.54219817 -43.55471215 20.5017949 -43.58203125 24.22265625 C-44 27 -44 27 -45.19921875 29.80859375 C-46.67965781 32.37791998 -48.0941407 34.7269568 -50 37 C-50.68520596 37.20563505 -51.37041191 37.4112701 -52.07638168 37.62313652 C-52.71117573 38.07750147 -53.34596977 38.53186642 -54 39 C-54.39987499 41.81369587 -54.52229072 44.24242225 -54.48101807 47.06106567 C-54.48443577 47.90398631 -54.48785347 48.74690695 -54.49137473 49.61537063 C-54.49799393 52.45632242 -54.47591142 55.29634146 -54.45410156 58.13720703 C-54.45297396 60.16703265 -54.45360524 62.1968599 -54.45587158 64.22668457 C-54.45702304 69.75132506 -54.43344386 75.27562081 -54.40557575 80.80018091 C-54.38063397 86.56841966 -54.37822581 92.3366656 -54.37347412 98.10494995 C-54.36102306 109.03432739 -54.32817265 119.9635455 -54.28807616 130.89285266 C-54.24342466 143.33278501 -54.22138809 155.77272481 -54.20129442 168.21271729 C-54.15944187 193.80856965 -54.08824631 219.4042692 -54 245 C-47.07 245 -40.14 245 -33 245 C-33 234.44 -33 223.88 -33 213 C-22.77 213 -12.54 213 -2 213 C-1.90751098 189.8262577 -1.83607649 166.65255965 -1.79275131 143.47867012 C-1.7721024 132.71927748 -1.74393743 121.96000142 -1.69824219 111.20068359 C-1.65844559 101.82580264 -1.63258415 92.45100609 -1.62364602 83.07604301 C-1.61841907 78.10936722 -1.60608581 73.14293296 -1.57707977 68.17633438 C-1.55002391 63.5060233 -1.54153496 58.83605431 -1.54756927 54.1656723 C-1.54646461 52.44750741 -1.53845233 50.72933163 -1.5231781 49.01123428 C-1.50340306 46.67308864 -1.5080138 44.33625054 -1.51898193 41.99807739 C-1.51345118 40.03189296 -1.51345118 40.03189296 -1.50780869 38.02598763 C-1.75144339 36.52812375 -1.75144339 36.52812375 -2 35 C-3.86006957 33.56574708 -3.86006957 33.56574708 -6 33 C-8.39036601 30.6289631 -10.48988489 28.02023023 -12 25 C-12.36736234 20.63983053 -12.37747048 16.35951822 -12 12 C-10.375 8.5 -10.375 8.5 -8 6 C-5.51329902 3.6845769 -3.06113394 1.53056697 0 0 Z " transform="translate(539,249)" style="fill: #F0F0F0;"/><path d="M0 0 C2.66796875 0.51953125 2.66796875 0.51953125 5.4296875 1.9453125 C8.79723476 4.24114399 11.77752137 6.46137629 14.41015625 9.58984375 C15.66796875 11.51953125 15.66796875 11.51953125 16.35546875 14.14453125 C16.51015625 15.81515625 16.51015625 15.81515625 16.66796875 17.51953125 C16.755625 18.27621094 16.84328125 19.03289062 16.93359375 19.8125 C17.11706237 22.50198312 17.08498751 24.85301707 16.66796875 27.51953125 C15.55527734 30.06679979 14.22594911 32.21756551 12.6640625 34.51171875 C12.00535156 35.17429687 11.34664062 35.836875 10.66796875 36.51953125 C9.49008286 36.93136658 8.31219696 37.3432019 7.09861755 37.76751709 C5.12930016 38.76297173 5.12930016 38.76297173 3.66796875 40.51953125 C2.55606777 45.15434673 2.72463028 49.82077575 2.78149414 54.55957031 C2.77360514 56.01828913 2.76264405 57.4769941 2.74884033 58.93566895 C2.72009068 62.89437715 2.73435746 66.85190432 2.75628209 70.81061268 C2.77190337 74.94803276 2.74805775 79.08521957 2.7283783 83.22259521 C2.69712281 91.05661074 2.70141968 98.89018836 2.71845287 106.72423148 C2.73611676 115.6432287 2.71420311 124.56199082 2.68894589 133.48095369 C2.63787953 151.82723296 2.6365768 170.17321714 2.66796875 188.51953125 C6.63439773 188.57488213 10.59712927 188.57665571 14.5637207 188.53173828 C16.56529088 188.51977146 18.56697218 188.54853327 20.56835938 188.578125 C24.41762707 188.51994967 27.9011157 188.32444773 31.66796875 187.51953125 C34.50360289 185.81975692 36.58932552 184.03937544 38.87742615 181.66581726 C41.96183612 177.96859946 44.92285819 174.24467347 47.73046875 170.33203125 C49.02507105 168.566996 50.32067887 166.80269792 51.6171875 165.0390625 C52.27895996 164.13365723 52.94073242 163.22825195 53.62255859 162.29541016 C57.03846755 157.65959196 60.54253678 153.09165868 64.04296875 148.51953125 C68.96568462 142.07567562 73.86329574 135.61671549 78.69140625 129.1015625 C81.43784013 125.51382971 84.36672687 122.08417709 87.33203125 118.67578125 C87.99332031 117.6084375 87.99332031 117.6084375 88.66796875 116.51953125 C88.60795076 114.44558955 88.60795076 114.44558955 87.66796875 112.51953125 C87.32507813 111.89820313 86.9821875 111.276875 86.62890625 110.63671875 C85.66796875 108.51953125 85.66796875 108.51953125 85.33203125 105.71484375 C85.29250341 102.60795583 85.33609993 99.61005964 85.66796875 96.51953125 C87.29296875 93.08203125 87.29296875 93.08203125 89.66796875 90.51953125 C92.1510858 88.20111074 94.60780971 86.04961077 97.66796875 84.51953125 C102.0609058 84.02797031 106.27799043 83.98554558 110.66796875 84.51953125 C113.25860407 85.65470792 114.99157122 86.86485167 117.078125 88.76171875 C119.0248931 90.91416505 120.74400713 92.85532263 122.04296875 95.46484375 C122.82673857 98.04148702 123.05128726 100.39106446 123.16796875 103.08203125 C123.046875 105.94140625 123.046875 105.94140625 122.66796875 108.51953125 C121.10546875 111.83203125 121.10546875 111.83203125 118.66796875 114.51953125 C116.43811946 116.66829511 114.19225946 118.72148659 111.66796875 120.51953125 C108.87048034 121.45202739 107.12475994 121.65429277 104.23046875 121.64453125 C103.08771484 121.64839844 103.08771484 121.64839844 101.921875 121.65234375 C99.71481016 121.5222914 97.78827599 121.12809324 95.66796875 120.51953125 C95.4153125 121.24914062 95.16265625 121.97875 94.90234375 122.73046875 C93.5759126 125.72753154 92.060722 127.67150401 89.91796875 130.14453125 C85.72238743 135.14566418 81.82509673 140.30712916 77.98046875 145.58203125 C72.6003849 152.95063053 67.09404491 160.2032087 61.4621582 167.38110352 C60.38943482 168.74835015 59.32113859 170.11908461 58.2578125 171.49365234 C57.14909374 172.90645153 56.01395029 174.29873845 54.859375 175.67431641 C54.29089844 176.37218262 53.72242188 177.07004883 53.13671875 177.7890625 C52.35458008 178.72069214 52.35458008 178.72069214 51.55664062 179.67114258 C51.26337891 180.28111084 50.97011719 180.8910791 50.66796875 181.51953125 C51.61424019 184.25043175 53.03488746 186.00515896 54.79296875 188.33203125 C55.41171875 189.38390625 56.03046875 190.43578125 56.66796875 191.51953125 C57.16796875 194.95703125 57.16796875 194.95703125 56.66796875 198.51953125 C55.61101512 201.26082811 54.41589857 203.06298124 52.66796875 205.51953125 C51.92546875 206.15890625 51.18296875 206.79828125 50.41796875 207.45703125 C47.66796875 208.51953125 47.66796875 208.51953125 43.73046875 208.95703125 C41.6640625 208.87890625 41.6640625 208.87890625 39.66796875 208.51953125 C36.29296875 206.70703125 36.29296875 206.70703125 33.66796875 204.51953125 C33.00796875 203.52953125 32.34796875 202.53953125 31.66796875 201.51953125 C31.66796875 200.19953125 31.66796875 198.87953125 31.66796875 197.51953125 C22.09796875 197.51953125 12.52796875 197.51953125 2.66796875 197.51953125 C2.54972938 209.4212485 2.47881376 221.320742 2.48918629 233.22305584 C2.49215427 238.75100441 2.4750964 244.2773228 2.41088867 249.80493164 C2.34957978 255.14839014 2.34268284 260.48949892 2.37213707 265.83320045 C2.37402791 267.86281446 2.35692696 269.89254546 2.3197422 271.92181969 C2.10798028 281.30933272 2.10798028 281.30933272 3.66796875 290.51953125 C5.4583909 294.01508916 7.77807021 296.81969953 10.510396 299.62005901 C11.88079102 300.93617503 13.27375097 302.22867856 14.66796875 303.51953125 C15.87211524 304.93443855 17.05723335 306.36649354 18.19921875 307.83203125 C18.94099365 308.75169678 18.94099365 308.75169678 19.69775391 309.68994141 C20.42551025 310.59558838 20.42551025 310.59558838 21.16796875 311.51953125 C25.58011167 316.98374998 30.03599053 322.40179632 34.64672852 327.70019531 C37.06237425 330.50376456 39.28169982 333.34864137 41.375 336.40234375 C43.94172903 340.08262415 46.41779565 343.40403383 49.66796875 346.51953125 C52.70477372 347.60679746 52.70477372 347.60679746 55.85546875 347.64453125 C56.84933594 347.61101562 57.84320312 347.5775 58.8671875 347.54296875 C61.66796875 347.51953125 61.66796875 347.51953125 64.0625 348.24609375 C66.06574704 349.21984277 67.86286917 350.21584822 69.66796875 351.51953125 C71.94099013 353.85236899 73.37825946 355.98356907 74.91796875 358.83203125 C75.72305806 361.71693462 76.07101089 364.40313536 75.98046875 367.40234375 C75.63659261 369.73210461 75.01402084 371.56262455 74.04296875 373.70703125 C72.91615896 375.74088296 71.80595771 377.37379425 70.20703125 379.0625 C67.57122098 381.34374696 64.87354209 383.17412638 61.66796875 384.51953125 C57.9188518 385.12497871 54.41845397 385.12043772 50.66796875 384.51953125 C48.26205215 383.30871048 46.38278421 381.94975778 44.32421875 380.22265625 C42.56790688 378.41663744 41.08067068 376.60573061 39.66796875 374.51953125 C38.56130895 371.19955186 38.46556603 368.57646498 38.41796875 365.08203125 C38.37929688 363.38240234 38.37929688 363.38240234 38.33984375 361.6484375 C38.448125 360.61589844 38.55640625 359.58335937 38.66796875 358.51953125 C39.65114667 357.17374563 40.6488099 355.83827801 41.66796875 354.51953125 C41.66796875 353.90207031 41.66796875 353.28460937 41.66796875 352.6484375 C40.18522784 349.49182112 37.95905352 347.04590338 35.66796875 344.45703125 C34.65421508 343.28579015 33.64120379 342.1139061 32.62890625 340.94140625 C32.12456055 340.36068359 31.62021484 339.77996094 31.10058594 339.18164062 C26.47130915 333.81079598 22.06459195 328.24649927 17.60546875 322.734375 C16.50152097 321.3709165 15.39735008 320.00763861 14.29296875 318.64453125 C13.74423096 317.96712891 13.19549316 317.28972656 12.63012695 316.59179688 C8.52000472 311.53281322 4.3400041 306.53795179 0.09423828 301.59228516 C-1.8702937 299.29546663 -3.65194151 297.03966586 -5.33203125 294.51953125 C-5.58042824 292.52469236 -5.58042824 292.52469236 -5.57812691 290.199193 C-5.582109 289.31192077 -5.5860911 288.42464855 -5.59019387 287.51048928 C-5.58436818 286.53481789 -5.5785425 285.5591465 -5.57254028 284.5539093 C-5.57424913 283.51820728 -5.57595798 282.48250526 -5.57771862 281.41541833 C-5.58102543 277.92832479 -5.56999014 274.44142165 -5.55908203 270.9543457 C-5.55851818 268.4613241 -5.55883398 265.96830217 -5.55996704 263.47528076 C-5.56042318 258.09941958 -5.55473281 252.72361821 -5.54349136 247.3477726 C-5.52724864 239.57517807 -5.52202962 231.80260703 -5.51951538 224.02999737 C-5.51513635 211.41996867 -5.5018216 198.80996583 -5.48291016 186.19995117 C-5.46455675 173.94930145 -5.45039761 161.69865874 -5.44189453 149.44799805 C-5.44136908 148.69307634 -5.44084364 147.93815463 -5.44030227 147.1603565 C-5.43769222 143.37319842 -5.4351648 139.58604029 -5.43267846 135.79888213 C-5.41193947 104.37241304 -5.37655978 72.94597607 -5.33203125 41.51953125 C-6.42257812 41.38804687 -7.513125 41.2565625 -8.63671875 41.12109375 C-12.33203125 40.51953125 -12.33203125 40.51953125 -15.45703125 38.89453125 C-18.32681367 36.52384142 -20.25945157 34.24311791 -22.3515625 31.203125 C-23.33203125 29.51953125 -23.33203125 29.51953125 -24.33203125 26.51953125 C-24.75284933 22.79829705 -24.77985691 19.23953756 -24.33203125 15.51953125 C-23.40193986 13.13416755 -22.323844 11.30510765 -20.8203125 9.23828125 C-18.48187485 6.53772333 -16.28794589 4.57057406 -13.33203125 2.51953125 C-9.04375789 0.47285533 -4.71682132 -0.07849476 0 0 Z " transform="translate(606.33203125,272.48046875)" style="fill: #F7F7F7;"/><path d="M0 0 C2.03125 0.10546875 2.03125 0.10546875 4.125 0.5625 C7.08835624 1.88244565 9.70092664 3.40018104 12.125 5.5625 C13.3515625 7.421875 13.3515625 7.421875 14.125 9.5625 C14.15558439 11.22888602 14.1590416 12.89618102 14.125 14.5625 C29.68487196 14.54869099 45.24442871 14.50644965 60.80411053 14.43040943 C68.02886515 14.3957641 75.25342907 14.37040454 82.47827148 14.36694336 C88.77587225 14.36390279 95.07313334 14.34340036 101.37060291 14.30197543 C104.70485193 14.28065124 108.03851068 14.2706456 111.37283897 14.27634621 C115.09633771 14.28123026 118.81842287 14.25525342 122.54174805 14.22192383 C124.19791641 14.23486229 124.19791641 14.23486229 125.88754272 14.24806213 C128.72379203 14.20540987 131.3434116 14.11784903 134.125 13.5625 C137.23675437 11.28315258 137.23675437 11.28315258 139.125 8.5625 C139.785 8.2325 140.445 7.9025 141.125 7.5625 C144.16575409 7.191528 147.08442711 7.1888269 150.125 7.5625 C153.2336524 9.17439384 155.39607507 10.88384575 157.9375 13.25 C159.14061921 15.59291636 159.58836516 17.35069999 160 19.9375 C160.19140625 22.31640625 160.19140625 22.31640625 160.125 24.5625 C158.9375 27.875 158.9375 27.875 157.125 30.5625 C155.125 32.875 155.125 32.875 153.125 34.5625 C150.27346484 35.51301172 148.22600259 35.78906679 145.25 35.875 C142.56640625 35.83984375 142.56640625 35.83984375 140.125 35.5625 C139.155625 35.02625 138.18625 34.49 137.1875 33.9375 C134.87688025 31.27678635 133.4448556 28.82740597 132.125 25.5625 C132.125 24.5725 132.125 23.5825 132.125 22.5625 C116.54787786 22.59966046 100.97099476 22.65951182 85.3940773 22.74640274 C78.16147742 22.78621803 70.92898673 22.81859777 63.69628906 22.83349609 C57.39250385 22.84649983 51.08895865 22.87343138 44.7853086 22.91711307 C41.44720266 22.93975768 38.10965647 22.95333174 34.77143097 22.95438385 C31.04549359 22.95673976 27.32050176 22.98371049 23.59472656 23.01660156 C21.93316528 23.00905602 21.93316528 23.00905602 20.23803711 23.00135803 C19.22283997 23.01527084 18.20764282 23.02918365 17.16168213 23.04351807 C16.28044804 23.04720524 15.39921394 23.05089241 14.49127579 23.05469131 C13.71040478 23.22226818 12.92953377 23.38984505 12.125 23.5625 C9.98760511 25.49002472 9.98760511 25.49002472 8.125 27.5625 C5.12610054 28.56213315 2.89233714 28.79321314 -0.25 28.875 C-3.2109375 28.83984375 -3.2109375 28.83984375 -5.875 28.5625 C-6.865 28.02625 -7.855 27.49 -8.875 26.9375 C-10.875 24.5625 -10.875 24.5625 -12.6875 21.8125 C-13.67196469 19.11817559 -14.15274248 17.35293138 -14.3125 14.5625 C-14.22265625 12.515625 -14.22265625 12.515625 -13.875 10.5625 C-12.25 7.3125 -12.25 7.3125 -9.875 4.5625 C-6.48955551 1.63870703 -4.44403828 0.64510233 0 0 Z " transform="translate(268.875,506.4375)" style="fill: #FAFAFA;"/><path d="M0 0 C2.00390625 0.1484375 2.00390625 0.1484375 4 0.75 C6.67390239 2.45016915 8.88996719 4.38920967 11 6.75 C11.495 7.74 11.495 7.74 12 8.75 C12.30891587 11.77381113 12.29305506 14.72525313 12 17.75 C10.75 20.6875 10.75 20.6875 9 22.75 C8.443125 23.183125 7.88625 23.61625 7.3125 24.0625 C5 24.75 5 24.75 3.03515625 24.72265625 C2.32230469 24.69042969 1.60945313 24.65820312 0.875 24.625 C-1.043125 24.686875 -1.043125 24.686875 -3 24.75 C-4.06120696 26.47765163 -4.06120696 26.47765163 -5 28.75 C-6.40326757 30.67130955 -7.84650319 32.56361537 -9.3125 34.4375 C-10.2177763 35.60130714 -11.12270681 36.76538331 -12.02734375 37.9296875 C-12.50929199 38.54811523 -12.99124023 39.16654297 -13.48779297 39.80371094 C-17.80231226 45.35672156 -22.05678414 50.95601204 -26.31689453 56.55078125 C-28.03246674 58.79242245 -29.76330767 61.02164776 -31.49609375 63.25 C-32.60184403 64.68728345 -33.70732297 66.1247757 -34.8125 67.5625 C-35.33440918 68.22612549 -35.85631836 68.88975098 -36.39404297 69.57348633 C-37.6701149 71.24494557 -38.84364443 72.99358964 -40 74.75 C-40 76.07 -40 77.39 -40 78.75 C-39.34 79.78125 -38.68 80.8125 -38 81.875 C-36.90234375 83.69140625 -36.90234375 83.69140625 -36 85.75 C-35.48595186 89.16436187 -35.55130022 92.33079409 -36 95.75 C-37 98.9375 -37 98.9375 -39 101.75 C-41.50423074 104.31271596 -44.05733752 106.69973804 -47 108.75 C-49.6740573 109.64997286 -51.88961414 109.82413451 -54.75 110.0625 C-57.00485665 110.0122058 -58.91037068 109.77484109 -61.0859375 109.171875 C-63.31253587 108.23346189 -65.07377661 107.21250295 -67 105.75 C-68.99162831 103.74565917 -70.46675037 101.80496182 -71.9296875 99.38671875 C-73 96.75 -73 96.75 -73.5078125 93.70703125 C-73.62331237 90.60778468 -73.50686366 87.80866004 -73 84.75 C-71.375 81.3125 -71.375 81.3125 -69 78.75 C-66.51688295 76.43157949 -64.06015904 74.28007952 -61 72.75 C-59.27346932 72.73225062 -57.54689628 72.71850604 -55.8203125 72.70703125 C-52.82800487 72.53120106 -52.82800487 72.53120106 -50 71.75 C-46.9523565 69.43151637 -45.00002151 66.59620445 -42.875 63.4375 C-42.28299805 62.61805908 -41.69099609 61.79861816 -41.08105469 60.9543457 C-39.9002218 59.31646292 -38.73250293 57.66903333 -37.57910156 56.01171875 C-35.54209272 53.09414765 -33.40438224 50.26940881 -31.25 47.4375 C-30.55777344 46.50808594 -29.86554688 45.57867188 -29.15234375 44.62109375 C-27.16197739 41.96606785 -25.15089358 39.3294142 -23.12353516 36.70263672 C-22.25812818 35.57873574 -21.39702348 34.4515072 -20.54052734 33.32080078 C-18.78293039 31.00729326 -17.01843176 28.76975093 -15.03515625 26.64453125 C-13.26236919 24.68820859 -12.04404536 23.1832649 -11 20.75 C-10.83934008 17.30404005 -10.83934008 17.30404005 -11.0625 13.625 C-11.22265625 9.984375 -11.22265625 9.984375 -11 6.75 C-9.74609375 4.515625 -9.74609375 4.515625 -8 2.875 C-5.39909683 1.18651044 -3.08732299 0.30149639 0 0 Z " transform="translate(403,548.25)" style="fill: #F6F6F6;"/><path d="M0 0 C2.93927004 -0.28910853 5.13754805 -0.43912615 8 0 C11.3125 1.6875 11.3125 1.6875 14 4 C15.875 6.3125 15.875 6.3125 17 9 C17.4375 12.4375 17.4375 12.4375 17 16 C15.24505919 19.10039543 13.51174333 21.48825667 11 24 C41.69 24.33 72.38 24.66 104 25 C104.33 23.02 104.66 21.04 105 19 C107.48928714 16.11766752 109.83295358 14.11136428 113 12 C116.02867094 11.56328153 118.96358302 11.6471769 122 12 C124.67945825 13.22323094 126.4681187 14.54691593 128.6875 16.4375 C130 18 130 18 131.1875 19.75 C132 22 132 22 132.3125 25.375 C132 29 132 29 130.875 32.125 C129 35 129 35 126.5 37.875 C124.9375 39.078125 124.9375 39.078125 123 40 C120.2237045 40.51229262 117.6011518 40.62354667 114.78125 40.6640625 C113.40453125 40.33535156 113.40453125 40.33535156 112 40 C111.17873627 39.17490433 110.35747253 38.34980865 109.51132202 37.49971008 C107.9309408 36.07202603 107.9309408 36.07202603 106 35 C102.34882682 34.25690992 98.75375753 34.3093254 95.03759766 34.34057617 C93.39768356 34.32485062 93.39768356 34.32485062 91.72463989 34.30880737 C88.12082498 34.28006899 84.51797143 34.28634798 80.9140625 34.29296875 C78.41155799 34.2798531 75.90906406 34.26454929 73.40658569 34.24714661 C67.49935998 34.21134207 61.59234453 34.19756122 55.68503511 34.1945222 C48.29641336 34.1893656 40.90804112 34.14988572 33.51953125 34.11132812 C20.3463687 34.04672385 7.17330972 34.012553 -6 34 C-5.68804688 33.2265625 -5.37609375 32.453125 -5.0546875 31.65625 C-3.56547348 27.93191273 -3.56547348 27.93191273 -3 24 C-4.80495512 21.28536927 -4.80495512 21.28536927 -7 19 C-8 17 -8 17 -8.2734375 15.046875 C-8.38105951 12.61296193 -8.36880417 10.41141189 -8 8 C-6.60825709 5.44757575 -5.15314251 4.05299635 -3 2 C-2.01 1.34 -1.02 0.68 0 0 Z " transform="translate(633,495)" style="fill: #F4F4F4;"/><path d="M0 0 C3.69883543 -0.36867477 7.30248534 -0.3864634 11 0 C14.5 1.8125 14.5 1.8125 17 4 C17.8971875 4.7734375 17.8971875 4.7734375 18.8125 5.5625 C19.204375 6.036875 19.59625 6.51125 20 7 C21.19069875 10.57209625 21.50799961 13.59635274 21.48046875 17.3515625 C21.24263672 18.66253906 21.24263672 18.66253906 21 20 C19.56615797 22.47994086 17.95909766 24.40376571 16.01953125 26.50390625 C15.35308594 26.99761719 14.68664062 27.49132812 14 28 C12.35 28.33 10.7 28.66 9 29 C9 71.9 9 114.8 9 159 C3.39 159 -2.22 159 -8 159 C-8.66 158.34 -9.32 157.68 -10 157 C-10.1875 153.9375 -10.1875 153.9375 -10 151 C-9.67 150.67 -9.34 150.34 -9 150 C-7.48071962 149.92820036 -5.95832518 149.91607993 -4.4375 149.9375 C-3.61121094 149.94652344 -2.78492188 149.95554687 -1.93359375 149.96484375 C-1.29550781 149.97644531 -0.65742187 149.98804688 0 150 C0.00955688 134.30971175 -0.01505165 118.61987274 -0.0802784 102.92973804 C-0.1097692 95.64440742 -0.1281004 88.3593685 -0.12011719 81.07397461 C-0.11318692 74.7236056 -0.12723918 68.37368805 -0.16643608 62.02343005 C-0.18645811 58.66118246 -0.19600707 55.29964371 -0.18042374 51.93735695 C-0.16829674 48.18254269 -0.19325417 44.42969105 -0.22705078 40.67504883 C-0.21482986 39.56158585 -0.20260895 38.44812286 -0.1900177 37.30091858 C-0.23705353 34.40746851 -0.33422405 31.81625806 -1 29 C-2.26938554 27.19633214 -2.26938554 27.19633214 -3.96456909 25.89433289 C-4.96626129 25.26920303 -5.96795349 24.64407318 -7 24 C-8.33984375 22.015625 -8.33984375 22.015625 -9 20 C-9.487116 17.22386986 -9.56134026 14.65387048 -9.52734375 11.8359375 C-9.26630859 10.43214844 -9.26630859 10.43214844 -9 9 C-7.07983144 5.84149819 -4.81679692 3.38344355 -2 1 C-1.34 0.67 -0.68 0.34 0 0 Z " transform="translate(567,344)" style="fill: #F3F3F3;"/><path d="M0 0 C3.75180789 -0.42742115 7.25542441 -0.54873021 11 0 C12.97265625 1.171875 12.97265625 1.171875 14.625 2.8125 C15.78301712 4.18106569 16.90480224 5.58066299 18 7 C18.71929688 7.86882813 19.43859375 8.73765625 20.1796875 9.6328125 C21.72589991 11.50180326 23.25854446 13.38210253 24.77734375 15.2734375 C27.34649872 18.42505466 30.03783632 21.4448963 32.78515625 24.44140625 C33.18605469 24.95574219 33.58695313 25.47007812 34 26 C34 26.66 34 27.32 34 28 C34.99 27.93039062 35.98 27.86078125 37 27.7890625 C41.0623921 27.58848864 44.94416881 27.60551186 49 28 C51.63671875 29.125 51.63671875 29.125 53.6875 30.625 C55.48046875 32.30859375 55.48046875 32.30859375 57 34 C57.825 34.886875 58.65 35.77375 59.5 36.6875 C61 40 61 40 61.33984375 42.61328125 C61.43662379 45.47409917 61.35186521 48.15964225 61 51 C59.75805666 54.35324701 58.1762205 56.73870753 56.1875 59.6875 C54 62 54 62 51.5 63.8125 C48.09860758 64.96654386 45.56446739 65.30515591 42 65.4375 C38.83984375 65.34765625 38.83984375 65.34765625 36 65 C32.5625 63.375 32.5625 63.375 30 61 C28.1524538 59.06663881 26.60820563 57.15959041 25 55 C23.94663489 51.83990467 23.79967112 49.4446864 23.75 46.125 C23.72421875 45.09632813 23.6984375 44.06765625 23.671875 43.0078125 C23.78015625 42.01523437 23.8884375 41.02265625 24 40 C24.54140625 39.13117187 25.0828125 38.26234375 25.640625 37.3671875 C26.31351563 36.19542969 26.31351563 36.19542969 27 35 C26.84660156 34.37222656 26.69320312 33.74445312 26.53515625 33.09765625 C24.32228762 30.07396553 21.91099948 27.24738928 19.4375 24.4375 C18.35179842 23.18972897 17.26717447 21.94101951 16.18359375 20.69140625 C15.64589355 20.07152832 15.10819336 19.45165039 14.55419922 18.81298828 C11.60501785 15.37273996 8.77330672 11.8387042 5.9375 8.3046875 C4.02444887 5.94951283 4.02444887 5.94951283 1.75 3.8203125 C1.1725 3.21960938 0.595 2.61890625 0 2 C0 1.34 0 0.68 0 0 Z " transform="translate(668,541)" style="fill: #F4F4F4;"/><path d="M0 0 C2.86095143 0.10066311 4.93433749 0.52213859 7.75 1.3125 C10.92599729 3.16035297 12.65897336 4.67776339 15.0625 7.375 C16.68701879 9.3309789 18.05116252 11.03982504 19.1875 13.3125 C19.28470427 15.24800864 19.31727914 17.18705792 19.3125 19.125 C19.31636719 20.68154297 19.31636719 20.68154297 19.3203125 22.26953125 C19.1875 25.3125 19.1875 25.3125 18.328125 27.76953125 C18.28171875 28.60871094 18.2353125 29.44789063 18.1875 30.3125 C19.74753538 32.88683541 21.75760561 34.99972561 23.8125 37.1875 C24.89086708 38.36980607 25.96640665 39.55469745 27.0390625 40.7421875 C27.56532227 41.32323242 28.09158203 41.90427734 28.63378906 42.50292969 C31.03431896 45.29876998 33.09971112 48.27783289 35.1875 51.3125 C32.56936698 51.9735917 30.17610974 52.19376884 27.47265625 52.24609375 C26.38855469 51.93800781 25.30445313 51.62992187 24.1875 51.3125 C20.98467696 48.66870841 18.3892406 45.49065392 15.8684082 42.20458984 C14.38976672 40.35447163 13.06733214 38.75592721 11.1875 37.3125 C7.54563059 37.19571092 7.54563059 37.19571092 4.1875 38.3125 C1.21319076 38.59576755 -0.9380661 38.79978498 -3.8125 38.3125 C-6.78890507 37.00591781 -9.29666285 35.36430497 -11.8125 33.3125 C-14.12885923 30.75231349 -15.89869225 28.18321162 -17.8125 25.3125 C-18.32790106 21.93842098 -18.21418791 18.69672062 -17.8125 15.3125 C-17.11709135 13.02871477 -16.26641306 11.13851761 -15.0859375 9.06640625 C-12.99251936 6.18314016 -10.72693882 4.37689416 -7.8125 2.3125 C-5.03477203 0.36809042 -3.48750726 0.28586125 0 0 Z " transform="translate(339.8125,454.6875)" style="fill: #F3F4F3;"/><path d="M0 0 C3.70007951 -0.3799745 7.29876962 -0.35963372 11 0 C13.33481149 0.71009143 15.23925236 1.57276773 17.34765625 2.79296875 C19 4 19 4 21.375 6.5 C22.78182015 8.66433869 23.9778219 10.6364827 25 13 C25.54963255 16.40193618 25.50144135 19.59224554 25 23 C23.74304399 26.04370341 22.12464091 28.49222712 20 31 C17.4375 33.375 17.4375 33.375 15 35 C14.401875 35.4125 13.80375 35.825 13.1875 36.25 C11 37 11 37 7.1875 37.3125 C4.18011388 37.22306101 2.26817771 36.76432842 -0.6875 35.8125 C-4 34 -4 34 -6.75 31.625 C-10.75182482 26.95620438 -10.75182482 26.95620438 -12 24 C-12.42218563 20.60516489 -12.37813041 17.3978479 -12 14 C-10.9375 10.25 -10.9375 10.25 -9 7 C-6.82284112 4.77244392 -4.5294446 2.81632407 -2 1 C-1.34 0.67 -0.68 0.34 0 0 Z " transform="translate(537,652)" style="fill: #F4F4F4;"/><path d="M0 0 C2.45157934 -0.11104715 4.68371432 -0.0681026 7.1171875 0.2734375 C10.17598552 1.5162416 12.61305801 3.13107841 15.1171875 5.2734375 C17.6171875 8.0859375 17.6171875 8.0859375 19.1171875 11.2734375 C19.6796875 15.1484375 19.6796875 15.1484375 19.56640625 17.1875 C19.04737517 19.59760956 18.21971962 21.38618093 16.9921875 23.5234375 C15.23721425 26.02071036 13.61854313 27.71667694 11.3046875 29.7734375 C8.1171875 31.2734375 8.1171875 31.2734375 4.1796875 31.7109375 C1.26427258 31.54370529 -0.77215498 30.99181238 -3.6328125 30.0859375 C-6.8828125 28.2734375 -6.8828125 28.2734375 -9.1953125 25.7734375 C-10.43021013 23.94395953 -11.65844933 22.10998225 -12.8828125 20.2734375 C-13.38188323 17.2267848 -13.30646694 14.32793371 -12.8828125 11.2734375 C-11.1953125 7.9609375 -11.1953125 7.9609375 -8.8828125 5.2734375 C-3.46855172 0.50373158 -3.46855172 0.50373158 0 0 Z " transform="translate(396.8828125,665.7265625)" style="fill: #F7F7F7;"/><path d="M0 0 C2.48046875 -0.64453125 2.48046875 -0.64453125 5.0625 -0.75 C7.62890625 -0.53515625 7.62890625 -0.53515625 10 0 C13.5 1.8125 13.5 1.8125 16 4 C16.99 5.485 16.99 5.485 18 7 C18.23103845 9.86487673 18.34679965 12.19257429 18 15 C16.875 17.75 16.875 17.75 15 20 C12.3125 22.3125 12.3125 22.3125 9 24 C6.8993385 24.45283721 5.10650809 24.56800904 2.9609375 24.45703125 C1 24 1 24 -0.7734375 23.01171875 C-2.95809478 21.29063509 -4.73294369 19.36416769 -6.375 17.125 C-7 15 -7 15 -7.5625 11.75 C-7.376875 10.5125 -7.19125 9.275 -7 8 C-5.63931378 5.5017626 -4.1666831 3.6060432 -2.19921875 1.55078125 C-1.47347656 1.03902344 -0.74773438 0.52726562 0 0 Z " transform="translate(597,282)" style="fill: #070707;"/><path d="M0 0 C2.02734375 -0.12890625 2.02734375 -0.12890625 5.96484375 0.49609375 C9.33984375 2.30859375 9.33984375 2.30859375 11.96484375 4.49609375 C12.95484375 5.98109375 12.95484375 5.98109375 13.96484375 7.49609375 C14.4639201 10.54278078 14.39221278 13.44196876 13.96484375 16.49609375 C12.21484375 19.93359375 12.21484375 19.93359375 9.96484375 22.49609375 C9.09859375 23.17671875 9.09859375 23.17671875 8.21484375 23.87109375 C5.47706236 24.63158858 2.84238251 24.94906651 0 24.890625 C-0.67160156 24.76042969 -1.34320313 24.63023437 -2.03515625 24.49609375 C-4.49817177 23.07125251 -6.01144545 21.56916335 -8.03515625 19.49609375 C-9.03515625 17.49609375 -9.03515625 17.49609375 -9.37890625 15.10546875 C-9.54261272 12.10964037 -9.53508942 9.45819779 -9.03515625 6.49609375 C-7.75390625 4.4375 -7.75390625 4.4375 -6.03515625 2.80859375 C-4.01128598 1.3980175 -2.39514538 0.58384542 0 0 Z " transform="translate(472.03515625,258.50390625)" style="fill: #070707;"/><path d="M0 0 C2.75 -0.3125 2.75 -0.3125 6 0 C9.3125 1.875 9.3125 1.875 12 4 C13 6 13 6 13.34375 7.953125 C13.51380953 10.45300002 13.49880509 12.53895342 13 15 C11.68359375 16.92578125 11.68359375 16.92578125 9.9375 18.5625 C8 19.953125 8 19.953125 6 21 C4.824375 21.268125 3.64875 21.53625 2.4375 21.8125 C1.303125 21.544375 0.16875 21.27625 -1 21 C-2.99092739 19.5002265 -4.39501143 17.99415143 -5.890625 16 C-7 14 -7 14 -7.6875 10.4375 C-7.460625 9.303125 -7.23375 8.16875 -7 7 C-5.53776465 4.61650282 -4.00974145 3.00974145 -2 1 C-1.34 0.67 -0.68 0.34 0 0 Z " transform="translate(707,577)" style="fill: #0A0A0A;"/><path d="M0 0 C1.6396875 0.2165625 1.6396875 0.2165625 3.3125 0.4375 C5.49701629 1.5844805 7.14536664 2.83548827 8.9453125 4.5234375 C9.39648438 5.15507812 9.84765625 5.78671875 10.3125 6.4375 C10.9296875 8.6640625 10.9296875 8.6640625 11.0625 11 C10.8828125 13.31640625 10.8828125 13.31640625 10.3125 15.4375 C7.9375 18.4375 7.9375 18.4375 5.3125 20.4375 C4.6525 20.7675 3.9925 21.0975 3.3125 21.4375 C0.4375 21.625 0.4375 21.625 -2.6875 21.4375 C-4.875 20.75 -4.875 20.75 -6.6875 19.4375 C-8.4375 17.25 -8.4375 17.25 -9.6875 14.4375 C-10.1875 11 -10.1875 11 -9.6875 7.4375 C-8.24059578 5.04206967 -6.69830669 3.44830669 -4.6875 1.4375 C-2.6875 0.4375 -2.6875 0.4375 0 0 Z " transform="translate(544.6875,256.5625)" style="fill: #090909;"/><path d="M0 0 C2.75 -0.3125 2.75 -0.3125 6 0 C9.3125 1.875 9.3125 1.875 12 4 C12.33 4.66 12.66 5.32 13 6 C13.29402051 8.94020507 13.48857681 11.13757715 13 14 C11.58246538 16.47010697 10.07486079 17.97454066 8 20 C6 21 6 21 3.25 21.375 C1.64125 21.189375 1.64125 21.189375 0 21 C-2.34607436 19.54792627 -3.99912601 17.95434204 -6 16 C-6.33 15.34 -6.66 14.68 -7 14 C-7.375 10.75 -7.375 10.75 -7 7 C-5.56643494 4.59289448 -4.01289283 3.01289283 -2 1 C-1.34 0.67 -0.68 0.34 0 0 Z " transform="translate(660,628)" style="fill: #090809;"/><path d="M0 0 C2.75 -0.3125 2.75 -0.3125 6 0 C9.3125 1.875 9.3125 1.875 12 4 C12.33 4.66 12.66 5.32 13 6 C13.29402051 8.94020507 13.48857681 11.13757715 13 14 C11.58246538 16.47010697 10.07486079 17.97454066 8 20 C6 21 6 21 3.25 21.375 C1.64125 21.189375 1.64125 21.189375 0 21 C-2.34607436 19.54792627 -3.99912601 17.95434204 -6 16 C-6.33 15.34 -6.66 14.68 -7 14 C-7.375 10.75 -7.375 10.75 -7 7 C-5.56643494 4.59289448 -4.01289283 3.01289283 -2 1 C-1.34 0.67 -0.68 0.34 0 0 Z " transform="translate(707,365)" style="fill: #09090A;"/><path d="M0 0 C2.11690464 -0.43959915 3.91372932 -0.50569712 6.0703125 -0.36328125 C8 0 8 0 10.875 1.3125 C13 3 13 3 15 6 C15.375 9.3125 15.375 9.3125 15 13 C13.125 16.375 13.125 16.375 11 19 C9 20 9 20 7.01171875 20.30859375 C4.56493586 20.44429768 2.41646254 20.4249641 0 20 C-3.0625 17.5625 -3.0625 17.5625 -4.18359375 15.9140625 C-5 14 -5 14 -5.47265625 11.7734375 C-5.63057017 9.35209075 -5.53093487 7.3674473 -5 5 C-4.34 3.989375 -3.68 2.97875 -3 1.9375 C-2.01 1.298125 -1.02 0.65875 0 0 Z " transform="translate(400,314)" style="fill: #080808;"/><path d="M0 0 C2.05859375 -0.125 2.05859375 -0.125 5.99609375 0.4375 C8.93359375 2.3125 8.93359375 2.3125 10.99609375 4.4375 C11.32609375 5.0975 11.65609375 5.7575 11.99609375 6.4375 C12.24609375 9.75 12.24609375 9.75 11.99609375 13.4375 C10.74609375 16.25 10.74609375 16.25 8.99609375 18.4375 C8.12984375 19.0871875 8.12984375 19.0871875 7.24609375 19.75 C4.99609375 20.4375 4.99609375 20.4375 1.55859375 20.8125 C0.38296875 20.68875 -0.79265625 20.565 -2.00390625 20.4375 C-4.87890625 18.5625 -4.87890625 18.5625 -7.00390625 16.4375 C-8.00390625 14.4375 -8.00390625 14.4375 -8.3125 12.44921875 C-8.44829905 10.00072077 -8.43324585 7.85514049 -8.00390625 5.4375 C-5.50390625 2.375 -5.50390625 2.375 -3.8515625 1.25 C-2.00390625 0.4375 -2.00390625 0.4375 0 0 Z " transform="translate(454.00390625,729.5625)" style="fill: #070707;"/><path d="M0 0 C1.258125 0.144375 2.51625 0.28875 3.8125 0.4375 C6.01573201 1.63305226 7.67430102 2.92754039 9.484375 4.66015625 C9.92265625 5.24667969 10.3609375 5.83320313 10.8125 6.4375 C11.1528125 8.17 11.1528125 8.17 11.5 9.9375 C10.8125 13.4375 10.8125 13.4375 8.9375 16.8125 C8.23625 17.67875 7.535 18.545 6.8125 19.4375 C4.8125 20.4375 4.8125 20.4375 2.82421875 20.74609375 C0.37572077 20.8818928 -1.76985951 20.8668396 -4.1875 20.4375 C-7.25 17.9375 -7.25 17.9375 -8.375 16.28515625 C-9.1875 14.4375 -9.1875 14.4375 -9.625 12.43359375 C-9.75 10.375 -9.75 10.375 -9.1875 6.4375 C-7.3125 3.5 -7.3125 3.5 -5.1875 1.4375 C-3.1875 0.4375 -3.1875 0.4375 0 0 Z " transform="translate(340.1875,463.5625)" style="fill: #070707;"/><path d="M0 0 C2.8125 -0.25 2.8125 -0.25 6 0 C8.75 1.3125 8.75 1.3125 11 3 C11.99 4.485 11.99 4.485 13 6 C13.41159175 8.31357886 13.43613113 10.42161756 13.3671875 12.76953125 C13.24601562 13.50558594 13.12484375 14.24164062 13 15 C12.360625 16.010625 11.72125 17.02125 11.0625 18.0625 C10.051875 18.701875 9.04125 19.34125 8 20 C5.62166795 20.52039454 3.58713186 20.62964703 1.15625 20.5 C0.4446875 20.335 -0.266875 20.17 -1 20 C-4 17.625 -4 17.625 -6 15 C-7 13 -7 13 -7.375 10.25 C-7.25125 9.1775 -7.1275 8.105 -7 7 C-5.54792627 4.65392564 -3.95434204 3.00087399 -2 1 C-1.34 0.67 -0.68 0.34 0 0 Z " transform="translate(345,629)" style="fill: #090909;"/><path d="M0 0 C3.3125 -0.3125 3.3125 -0.3125 7 0 C9.875 1.875 9.875 1.875 12 4 C12.33 4.66 12.66 5.32 13 6 C13.23490633 8.86585728 13.40325333 11.19335682 13 14 C11.125 16.9375 11.125 16.9375 9 19 C8.34 19.33 7.68 19.66 7 20 C3.6875 20.3125 3.6875 20.3125 0 20 C-2.875 18.125 -2.875 18.125 -5 16 C-5.33 15.34 -5.66 14.68 -6 14 C-6.23490633 11.13414272 -6.40325333 8.80664318 -6 6 C-4.125 3.0625 -4.125 3.0625 -2 1 C-1.34 0.67 -0.68 0.34 0 0 Z " transform="translate(540,660)" style="fill: #080808;"/><path d="M0 0 C2.12127007 -0.47899647 3.89665978 -0.56894655 6.06640625 -0.43359375 C7.02353516 -0.21896484 7.02353516 -0.21896484 8 0 C10.9375 1.875 10.9375 1.875 13 4 C13.33 4.66 13.66 5.32 14 6 C14.3125 9.3125 14.3125 9.3125 14 13 C12.125 15.875 12.125 15.875 10 18 C9.34 18.33 8.68 18.66 8 19 C5.06432188 19.28875522 2.85739836 19.46439553 0 19 C-0.99 18.360625 -1.98 17.72125 -3 17.0625 C-3.66 16.051875 -4.32 15.04125 -5 14 C-5.52656934 11.61317339 -5.63130604 9.59940303 -5.4765625 7.16015625 C-5.31929688 6.44730469 -5.16203125 5.73445313 -5 5 C-4.34 3.989375 -3.68 2.97875 -3 1.9375 C-2.01 1.298125 -1.02 0.65875 0 0 Z " transform="translate(348,361)" style="fill: #0A0A0A;"/></svg>